<?xml version="1.0" standalone="no"?>
<!DOCTYPE svg PUBLIC "-//W3C//DTD SVG 1.1//EN" "http://www.w3.org/Graphics/SVG/1.1/DTD/svg11.dtd">
<svg xmlns="http://www.w3.org/2000/svg">
<metadata>Designed by seanmacentee.com</metadata>
<defs>
<font id="football-trophies" horiz-adv-x="512">
  <font-face font-family="football-trophies" font-weight="500" font-stretch="normal" units-per-em="512" panose-1="2 0 6 9 0 0 0 0 0 0" ascent="480" descent="-32" x-height="454" bbox="29 -16.3333 484 467.572" underline-thickness="50" underline-position="-100" unicode-range="U+0061-0075"/>
    <missing-glyph/>
    <glyph glyph-name="a" unicode="a" d="M233 -12c-13 1 -25 3 -37 6c-7 2 -14 4 -18 10c-1 1 -2 2 -1 4c3 7 2 15 9 20c2 2 3 6 3 9c0 7 4 14 6 20c0 1 1 1 2 2c4 2 5 1 6 -4c3 13 5 25 8 37c7 30 6 59 7 92c0 3 -1 6 -5 6c-2 0 -2 2 -3 3c-3 7 -3 13 2 19c1 1 2 2 1 4c-7 21 -12 43 -20 64c-4 11 -11 22 -16 33 c-6 13 -13 26 -20 39c-2 4 -2 9 -6 12c-7 5 1 14 2 19c1 7 6 10 13 9c3 -1 5 0 5 4c0 6 4 11 7 17c11 24 34 41 65 45c4 0 8 -2 12 -2c16 1 29 -7 42 -13c2 -1 4 -2 4 -5s2 0 3 -1c8 -8 15 -18 19 -29c2 -6 2 -14 10 -13s12 -1 14 -9c0 -2 1 -3 2 -4c6 -5 5 -15 -2 -19 c-5 -3 -7 -7 -9 -12c-9 -19 -17 -38 -26 -56s-14 -38 -20 -58c-1 -4 -2 -8 -4 -12c-1 -2 -2 -11 0 -12c6 -4 6 -11 5 -17c0 -3 -2 -7 -7 -7c-3 0 -3 -1 -3 -4v-48c0 -12 3 -23 5 -34c2 -13 6 -26 9 -39c0 -2 0 -4 3 -4c9 -1 10 -12 13 -20c1 -1 1 -3 -1 -4 c-7 -3 -14 -7 -21 -7h-19c-5 0 -10 0 -15 -1c-6 -1 -13 2 -19 0c2 0 5 -1 7 -1v0h-11c6 -2 12 -4 19 -4c16 0 32 1 48 5c5 1 11 5 13 -1c1 -3 2 -6 -2 -8c-9 -5 -19 -6 -29 -6c-7 0 -14 0 -20 -3c-7 -3 -14 -1 -21 -2c1 3 3 1 4 2h-29c2 -2 4 -1 5 -1c9 0 17 -1 26 -1 c3 0 4 -1 4 -5c0 4 1 4 3 4c16 1 30 1 44 4c4 1 8 3 12 2c3 -1 5 8 9 8c0 -3 3 -5 3 -9c0 -3 6 -6 0 -8c0 -5 -4 -5 -7 -6c-12 -6 -24 -8 -37 -9c-10 -1 -19 -1 -29 -1c-6 0 -12 1 -17 0c1 0 3 -2 4 0c-1 1 -3 1 -4 0zM263 27h-2v0h2v0z"/>
    <glyph glyph-name="b" unicode="b" d="M257 451c126 0 227 -102 227 -228s-102 -228 -228 -228c-125 0 -227 103 -227 229c0 125 103 227 228 227zM309 284c21 -19 32 -43 30 -72c3 5 2 11 2 16c-2 23 -12 43 -31 57c-1 3 -4 4 -7 6c-17 11 -35 15 -55 14c-47 -2 -84 -47 -78 -94c5 -38 37 -69 75 -72 c42 -4 80 20 92 58c1 4 3 7 0 12c-1 -1 -1 -2 -1 -3c-9 -39 -41 -64 -80 -64c-40 0 -74 24 -82 63c-11 51 25 92 73 97c23 2 43 -5 62 -18zM375 386c0 0 1 0 1 1c-1 9 2 14 9 14c5 0 9 -2 10 -7c2 -8 -6 -10 -13 -11c-1 -4 2 -5 4 -7c47 -44 69 -97 67 -161 c-3 -91 -77 -175 -167 -188c-112 -16 -212 61 -226 174c-2 15 -1 30 0 45c2 -5 2 -10 2 -15c-1 -59 19 -110 62 -151c35 -33 78 -51 127 -52c7 0 16 -2 22 -1c8 2 15 3 23 5c81 18 142 86 152 168c12 103 -50 194 -150 218c-82 20 -171 -21 -212 -96 c-12 -22 -19 -47 -23 -73c-4 7 0 28 10 52c14 36 37 63 65 86c-8 1 -14 3 -13 11c0 5 4 8 9 8c8 0 11 -5 10 -13c6 1 11 5 16 8c67 38 152 33 213 -14c1 0 1 -1 2 -1zM255 178c25 0 44 21 44 45c0 25 -20 44 -44 44s-45 -20 -45 -44c0 -25 21 -45 45 -45zM259 343 c18 0 32 15 32 32s-15 31 -32 31c-18 0 -32 -14 -32 -31s14 -32 32 -32zM110 243c-17 0 -32 14 -32 31s15 31 33 31c17 0 32 -14 32 -31s-15 -31 -33 -31zM399 297c18 0 32 -15 32 -32s-15 -31 -32 -31c-18 0 -32 15 -32 32s15 31 32 31zM194 100c0 17 -15 32 -32 32 c-18 0 -33 -14 -33 -31s15 -32 32 -32c18 0 33 14 33 31zM374 94c0 -17 -15 -31 -33 -31c-17 0 -32 14 -32 31s15 31 33 31c17 0 32 -14 32 -31zM146 207c-4 -23 23 -62 52 -78c44 -24 97 -19 133 14c20 18 36 51 31 63c-11 -55 -53 -84 -96 -89c-23 -3 -46 2 -66 13 c-29 16 -46 42 -54 77zM148 249c20 52 56 80 112 77s89 -35 103 -88c-1 18 -8 34 -19 48c-25 32 -58 43 -98 45c-37 1 -94 -43 -98 -82zM55 153c-5 1 -10 4 -10 10c0 12 20 11 20 -1c0 -6 -4 -8 -10 -9zM452 159c6 -1 11 -4 11 -10s-4 -8 -10 -8s-10 3 -10 9s4 8 9 9zM247 3 c-5 1 -9 4 -8 10c1 12 20 11 19 -1c0 -6 -5 -9 -11 -9zM145 208v28c-3 -9 -3 -19 0 -28zM363 234v-24h2c1 8 1 16 -2 24zM255 178c-24 0 -45 20 -45 45c0 24 20 44 45 44c24 0 44 -19 44 -44c0 -24 -19 -45 -44 -45zM253 239h7c12 0 15 -3 11 -14c-1 -3 1 -3 2 -4 c5 -7 1 -16 -8 -16h-23c-4 0 -5 1 -5 5c0 7 1 15 0 22c-1 10 7 7 16 7zM376 387l4 -4c-2 -1 -4 2 -5 3c-1 0 -1 1 -2 1c-61 47 -146 51 -213 13c-5 -3 -10 -6 -16 -7c0 8 -2 13 -10 13c-5 0 -9 -3 -9 -8c-1 -8 5 -10 13 -11c-28 -23 -51 -50 -65 -86c-9 -24 -14 -45 -10 -52 c4 26 11 50 23 72c40 75 130 117 212 97c100 -24 162 -115 150 -218c-10 -82 -71 -150 -152 -168c-8 -2 -15 -3 -23 -5c-6 -1 -15 1 -22 1c-49 1 -92 19 -127 52c-43 41 -63 92 -62 151c0 5 0 10 -2 15c-1 -15 -2 -30 0 -45c14 -113 114 -190 226 -174c90 13 164 97 167 188 c2 64 -20 117 -67 161c-2 2 -5 2 -4 6c7 1 15 4 13 12c-1 5 -5 7 -10 7c-7 0 -10 -5 -9 -14zM142 391h-1h-1l1 -1zM259 343c-17 0 -32 14 -32 31s14 32 32 32c17 0 32 -14 32 -31s-14 -32 -32 -32zM268 374c-1 6 -4 10 -10 10c-12 0 -12 -18 0 -19c6 0 9 3 10 9zM110 243 c18 0 33 14 33 31s-15 31 -32 31c-18 0 -33 -14 -33 -31s15 -31 32 -31zM120 274c-1 6 -5 10 -11 10s-9 -4 -9 -10s4 -10 10 -10s9 4 10 10zM399 297c-17 0 -32 -14 -32 -31s14 -32 32 -32c17 0 32 14 32 31s-14 32 -32 32zM408 266c-1 6 -4 9 -10 9c-12 0 -12 -18 0 -19 c6 0 9 4 10 10zM194 100c0 -17 -15 -31 -33 -31c-17 0 -32 15 -32 32s15 31 33 31c17 0 32 -15 32 -32zM171 101c-1 5 -5 9 -11 9c-12 0 -12 -19 1 -19c6 0 9 4 10 10zM374 94c0 17 -15 31 -32 31c-18 0 -33 -14 -33 -31s15 -31 32 -31c18 0 33 14 33 31zM351 94 c-1 -6 -5 -9 -11 -9c-13 0 -11 19 1 19c6 0 9 -4 10 -10zM309 284c-18 13 -39 20 -62 18c-48 -5 -84 -46 -73 -97c8 -39 42 -63 82 -63c39 0 71 25 80 64c0 1 0 2 1 3c3 -5 1 -8 0 -12c-12 -38 -50 -62 -92 -58c-38 3 -70 34 -75 72c-6 47 31 92 78 94c20 1 38 -3 55 -14 c3 -2 6 -3 7 -6zM146 207c8 -35 25 -61 54 -77c20 -11 43 -16 66 -13c43 5 85 34 96 89c5 -12 -12 -45 -32 -63c-36 -33 -88 -38 -132 -14c-28 16 -56 55 -52 78zM148 249c4 39 61 83 98 82c40 -2 73 -13 98 -45c11 -14 18 -30 19 -48c-14 53 -47 85 -103 88 s-92 -25 -112 -77zM55 153c6 1 10 3 10 9c0 12 -19 13 -19 1c0 -6 4 -9 9 -10zM452 159c-5 -1 -9 -3 -9 -9s4 -9 10 -9s10 2 10 8s-5 9 -11 10zM247 3c6 0 11 3 11 9c1 12 -19 13 -20 1c0 -6 4 -9 9 -10zM310 285l-1 -1c21 -19 31 -43 29 -72c3 5 3 11 2 16 c-2 23 -11 43 -30 57zM145 208c-3 9 -3 19 0 28v-28zM363 234c3 -8 3 -16 2 -24h-2v24zM253 239c-9 0 -17 3 -16 -7c1 -7 0 -15 0 -22c0 -4 1 -5 5 -5h23c9 0 12 9 7 16c-1 1 -2 1 -1 4c4 11 1 14 -11 14h-7zM242 222c0 -6 -3 -14 4 -14c5 0 7 3 7 8v14s-2 6 -6 6 c-5 0 -5 -3 -5 -7v-7zM260 209c6 -2 11 1 10 6c0 2 -1 4 -3 4c-3 0 -3 -2 -4 -4zM266 226c4 7 4 8 -4 9c1 -3 1 -7 4 -9zM142 391l-1 -1l-1 1h1h1zM378 385l2 -2c-2 -1 -2 0 -3 1zM376 387c0 -1 2 -1 2 -2l-1 -1c-1 0 -1 2 -2 2zM268 374c-1 -6 -4 -9 -10 -9 c-12 1 -12 19 0 19c6 0 9 -4 10 -10zM120 274c-1 -6 -4 -10 -10 -10s-10 4 -10 10s3 10 9 10s10 -4 11 -10zM408 266c-1 -6 -4 -10 -10 -10c-12 1 -12 20 0 20c6 0 9 -4 10 -10zM171 101c-1 -6 -4 -10 -10 -10c-13 0 -13 19 -1 19c6 0 10 -4 11 -9zM351 94 c-1 6 -4 10 -10 10c-12 0 -13 -18 -1 -19c6 0 10 3 11 9zM242 222c0 6 -2 15 5 14c4 0 6 -1 6 -6v-14c0 -6 -2 -8 -7 -8c-7 0 -4 8 -4 14zM260 209l3 6s1 4 4 4c5 0 4 -8 0 -10c-2 -1 -4 -1 -7 0zM266 226c-3 2 -3 6 -4 9c8 -1 8 -2 4 -9z"/>
    <glyph glyph-name="c" unicode="c" d="M328 37c0 -5 3 -6 4 -10c-1 -3 5 -7 -1 -8c-10 -1 -19 -2 -29 -3c-26 -1 -52 -1 -78 -1c3 0 6 -2 9 -2c23 0 48 -1 70 1c11 1 23 2 34 2c2 -2 0 -4 3 -5c1 -2 2 -3 2 -6c-1 -3 -1 -5 -4 -5c-5 0 -10 -1 -15 -2c-29 -4 -58 -6 -89 -4c-7 1 -15 2 -23 1c17 -3 33 -3 50 -3 c18 -1 35 2 52 3c10 1 20 4 30 4c0 -1 1 -3 1 -4c-1 0 -1 -1 -1 -2h-4c-1 1 -2 1 -3 -1h-4c-1 1 -2 0 -2 -1h-5c-1 1 -2 1 -3 -1h-5c-1 1 -3 1 -4 -1h-5c-1 1 -3 1 -4 -1h-5c-1 2 -2 1 -3 -1c-25 -3 -50 -3 -75 0c-13 2 -27 3 -40 5c-4 1 -6 1 -5 6c1 7 3 15 6 21 c4 8 7 16 11 25c3 7 8 14 12 20c8 11 10 23 11 36c1 21 3 41 6 61c0 3 0 6 -1 9c-5 11 -10 24 -16 35c-8 15 -10 30 -12 46c-2 17 -5 33 -7 50c0 3 -1 6 -3 8c-17 19 -16 43 -13 66c1 10 0 19 4 29c10 28 31 45 59 53c32 9 62 3 87 -20c22 -19 30 -44 25 -72 c-2 -11 -7 -22 -8 -34c-1 -15 -3 -30 -7 -45c-2 -8 -4 -17 -8 -25c-1 -3 -1 -6 -1 -9c1 -14 -3 -28 -8 -41c-5 -12 -9 -25 -14 -37c-3 -7 -4 -14 -4 -21c0 -15 0 -31 -1 -46c0 -4 1 -7 3 -10c6 -12 13 -23 18 -35c-12 -5 -32 -5 -47 -5c-1 0 -2 0 -3 -1c1 -1 4 -1 5 -1 c16 -1 32 1 47 4c2 -2 4 -5 5 -8c0 -2 0 -3 2 -3c0 -1 2 -3 2 -4c-2 -2 -5 -3 -8 -3c-17 -1 -33 -3 -50 -2c-3 0 -7 -2 -10 -1c-7 2 -14 1 -21 1c20 -4 41 -2 61 -2v0c10 1 19 2 29 3c0 -1 1 -2 1 -3zM260 55v1h-9v-1h9zM344 -1c0 2 1 4 -1 6c-1 -3 -2 -4 -5 -4 c-5 0 -9 -1 -14 -2c-29 -4 -59 -6 -90 -4c-8 0 -15 2 -23 1c17 -3 34 -3 51 -4c18 -1 35 3 52 4c10 1 20 3 30 3zM338 17c-17 0 -34 -4 -51 -4h-54c-3 0 -6 2 -9 2c27 0 52 0 78 1l30 3c6 1 -1 6 0 9c3 -3 4 -7 6 -11zM327 40c0 1 0 3 -1 4c-2 -3 -5 -3 -8 -3 c-17 -1 -33 -3 -50 -2c-3 0 -6 -2 -9 -1c-7 2 -15 1 -22 1c20 -4 41 -2 61 -2v0c10 1 19 2 29 3zM315 62c-12 -5 -31 -5 -46 -5c-1 0 -2 0 -3 -1c1 -1 2 -1 4 -1c16 -1 32 1 47 4c-1 1 -1 2 -2 3zM332 30c-3 2 -4 4 -4 7c2 -2 4 -4 4 -7zM341 12c-2 1 -3 3 -3 5 c2 -1 3 -3 3 -5zM325 48c-2 0 -3 1 -3 3c2 0 3 -2 3 -3zM336 -8c1 2 2 2 3 1c-1 -1 -2 -1 -3 -1zM322 -9c1 2 2 1 3 0c-1 -1 -2 0 -3 0zM314 -10c1 2 2 1 3 0c-1 -1 -2 0 -3 0zM305 -12c1 2 2 2 3 1c-1 -1 -2 -1 -3 -1zM296 -13c1 2 2 2 3 1c-1 -1 -2 -1 -3 -1zM343 -7 c0 1 1 2 2 2c0 -2 -1 -2 -2 -2zM330 -9c0 1 1 2 2 1c0 -1 -1 -1 -2 -1zM260 55h-9v1h9v-1z"/>
    <glyph glyph-name="d" unicode="d" d="M257 -8c-18 0 -33 1 -48 4c-6 1 -12 4 -18 5c-3 1 -3 2 -1 3c2 2 2 4 2 6c0 10 1 20 3 29c1 6 4 13 6 19c8 27 13 55 18 82c4 21 -2 41 -5 61c-14 84 -39 169 -72 238c-1 3 -2 5 -5 7c-1 1 -2 3 -1 4c1 2 3 1 4 1c20 -2 39 -7 59 -9h7h93c15 0 29 3 44 5c8 1 17 2 25 4 c3 1 5 -2 3 -5c-8 -14 -14 -30 -20 -45c-29 -70 -47 -145 -62 -227c-3 -17 0 -33 3 -49c5 -29 11 -58 20 -83c3 -8 3 -16 4 -24c0 -5 -2 -9 2 -13c2 -2 -1 -3 -3 -4c-20 -6 -40 -10 -58 -9z"/>
    <glyph glyph-name="e" unicode="e" d="M303 113c0 -4 9 0 9 -6c0 -2 4 -1 5 -2c2 -3 18 -15 10 -19c-3 -1 -2 -3 -2 -6c0 -11 2 -22 9 -31c1 -2 3 -4 4 -5c3 -6 7 -10 10 -15c0 0 0 -2 1 -2c8 2 8 -7 13 -9c4 -2 2 -7 2 -10s-2 -4 -4 -4c-65 -16 -155 -17 -221 0c-2 1 -5 1 -5 5s-2 8 3 10c2 1 4 1 4 4 c0 1 0 3 1 3c6 0 8 4 11 7c2 2 4 4 4 8c0 1 1 3 2 3c14 9 14 24 15 38c0 5 -9 5 -3 10c2 2 1 8 6 7c3 0 2 3 3 4c6 0 6 8 12 8c1 0 3 1 3 3c0 9 15 4 22 6c4 1 4 4 4 7s-2 4 -4 4c-16 3 -30 10 -43 20c-12 9 -17 22 -16 37c0 9 4 14 13 17c3 1 3 4 4 6c-3 2 -7 -2 -9 2 c-2 3 0 6 2 9c7 9 4 24 -7 28c-2 1 -3 -1 -5 -1c-4 0 -12 -3 -12 6c0 1 -2 1 -3 2c-23 11 -35 29 -40 54c-4 20 13 38 25 47c2 2 5 3 6 -1c1 -3 4 -5 7 -5c7 -1 14 -2 20 -7c1 0 2 -2 3 -1c3 4 9 2 12 4c4 3 9 4 13 8s7 13 16 10c1 0 2 0 2 1c2 9 15 -1 15 7c0 5 7 1 7 5 c0 5 -9 0 -6 7c0 1 -3 2 -4 3c-9 7 2 16 10 15c5 0 7 4 11 5c3 1 2 11 0 13c-10 8 -10 12 0 21c1 1 1 2 1 3c-1 5 3 10 -2 14c-2 1 0 3 2 3c7 1 14 1 21 0c3 0 4 -2 2 -4c-4 -4 -3 -14 1 -18c7 -5 7 -13 0 -18c-9 -6 -4 -18 6 -18c4 0 7 -1 11 -3c6 -3 7 -9 2 -13 c-2 -1 -5 -2 -4 -5c0 -3 -6 -1 -6 -5s7 1 7 -4c0 -9 12 2 14 -7c1 -3 3 -2 5 -2c4 0 6 0 9 -5c2 -3 7 -6 10 -9c6 -5 15 -2 20 -8c1 -1 1 0 2 1c6 5 13 6 20 7c4 1 8 2 9 6c1 3 2 2 4 1c16 -12 35 -33 24 -59c-8 -19 -19 -35 -39 -44c-1 0 -2 -1 -2 -2c0 -8 -6 -5 -10 -5 c-11 1 -26 -14 -15 -27c2 -3 5 -5 3 -9c-3 -3 -6 -2 -10 -1c0 -4 1 -6 5 -7c8 -2 11 -8 12 -17c2 -32 -31 -52 -58 -57c-2 0 -5 0 -5 -4c0 -3 0 -6 4 -7c8 -2 22 3 22 -7zM163 340c0 1 -1 0 -1 -1c2 -13 6 -24 -4 -32c-8 -6 -19 7 -8 13c1 1 3 1 3 3c2 20 -27 18 -34 4 c-11 -23 8 -43 18 -55c3 -3 5 -5 9 -3c2 1 5 0 7 -2c4 -4 8 -6 13 -9c6 -4 10 -9 13 -15c1 -1 0 -3 3 -3c8 39 2 78 -19 100zM336 340c-2 -1 -4 -3 -5 -5c-17 -23 -20 -49 -17 -77c1 -6 1 -12 3 -19c4 8 7 15 14 19c5 3 10 5 14 9c2 2 6 2 9 1c2 -1 3 -1 5 1 c11 12 33 34 20 59c-5 10 -23 14 -31 6c-4 -4 -4 -12 0 -14c7 -3 7 -11 0 -14c-10 -4 -15 11 -14 18c1 5 1 12 2 16z"/>
    <glyph glyph-name="f" unicode="f" d="M219 408v2c0 11 0 10 -11 10h-18c-8 0 -11 12 -7 20c1 3 0 3 -2 4c-4 2 -12 5 -10 11c2 8 21 7 30 7c40 2 81 2 121 -1c8 -1 27 -2 17 -12c-3 -3 -6 -5 -9 -6c-2 -1 -3 -1 -2 -3c2 -3 2 -7 2 -11c-1 -7 -3 -8 -10 -8h-22c-3 0 -4 0 -4 -4c0 -3 -2 -6 -1 -9 c11 6 24 6 36 4c17 -3 32 -15 29 -38c-1 -11 -1 -22 -2 -33c0 -1 0 -3 1 -4c6 -10 6 -22 7 -33c2 -33 1 -65 -4 -97c-6 -39 -23 -74 -47 -105c-3 -4 -6 -10 -10 -14c-5 -6 -8 -11 -8 -19c0 -3 0 -4 3 -4s4 -2 4 -5v-2c-3 -14 5 -24 15 -32c3 -3 6 -5 5 -9c0 -1 0 -2 1 -3 c11 -5 10 -15 15 -25c-10 -1 -20 -2 -29 -3c-42 -5 -83 -1 -125 3c-2 0 -3 1 -2 4c3 9 8 17 18 21c5 2 -2 10 5 10c1 0 2 2 3 3c6 7 10 14 12 23c1 5 -4 15 3 14c3 0 3 2 3 4c0 9 -5 15 -11 22c-15 16 -28 34 -39 53c-15 26 -22 54 -26 84c-3 24 -4 49 -4 73 c0 12 3 24 10 34c1 2 1 4 1 6c-1 11 -2 22 -2 33c-1 11 1 23 11 31c12 10 36 13 53 4zM340 378c0 7 -1 12 -6 16c-14 12 -42 8 -39 -14c0 -3 0 -5 1 -8c2 -5 2 -11 8 -14c11 -5 22 -6 33 -8c2 0 2 1 2 2c1 9 1 17 1 26zM173 363c0 -11 -1 -14 10 -12c9 2 18 4 26 8 c2 1 4 1 5 3c2 8 6 22 2 29c-9 15 -36 10 -42 -3c-3 -7 -1 -16 -1 -25z"/>
    <glyph glyph-name="g" unicode="g" d="M388 421c-1 -18 -2 -35 -4 -53c-3 -31 -20 -54 -45 -72c-3 -2 -4 -4 -4 -8c0 -3 -1 -6 -3 -9c-13 -19 -32 -30 -53 -37c-3 -1 -7 -2 -8 -6c0 -1 -3 -3 -4 -3c-7 -2 -5 -7 -5 -12c0 -13 1 -25 1 -38c0 -19 10 -33 27 -41c7 -4 15 -6 23 -8c1 0 4 0 5 -1 c6 -11 19 -15 19 -32v-56c0 -3 0 -5 3 -7h1c2 -8 10 -7 16 -9c1 0 2 -1 2 -1c0 -6 9 -7 9 -13c0 -11 -1 -11 -11 -14c-65 -18 -157 -18 -220 2c-5 2 -3 7 -4 12c0 3 0 5 4 5c6 1 0 9 7 9h3c9 -1 11 7 16 12c1 1 0 2 0 4v57c0 9 5 16 11 21c1 1 3 2 4 3c3 7 9 9 16 11 c23 5 43 20 44 45c0 15 1 29 1 44c0 3 0 4 -3 5s-5 3 -6 5c-2 4 -6 5 -9 6c-21 7 -39 17 -52 36c-2 3 -3 7 -3 11c0 3 -2 4 -4 6c-17 13 -32 27 -39 48c-10 30 -9 69 -10 107c0 3 1 4 4 4h54c6 0 6 -5 6 -8c1 -6 0 -12 0 -18c0 -5 1 -6 6 -6h128h9s4 1 4 4v19c0 8 1 10 9 10 h50c4 0 5 -1 5 -5v-29zM367 394v33c0 11 -1 12 -12 12c-5 0 -10 1 -13 -1c-3 -3 -2 -10 -1 -14c2 -16 -2 -29 -15 -40c-2 -2 -3 -4 -3 -7v-45v-24c0 -5 5 -5 7 -7c1 -1 3 0 4 1c15 14 27 30 31 51c3 15 1 29 2 41zM134 395c0 -11 -2 -24 0 -38c3 -21 16 -39 31 -53 c1 -1 3 -5 6 -3s7 3 7 9c-1 16 -1 31 -1 47c0 8 1 16 -1 23s-9 12 -14 18c-2 2 -3 5 -3 8v29c0 3 -1 4 -4 4h-17c-3 0 -4 -1 -4 -5v-39z"/>
    <glyph glyph-name="h" unicode="h" d="M254 452h89c8 0 14 -1 20 -8c10 -12 23 -22 34 -34c16 -17 34 -33 50 -50c9 -9 17 -18 26 -27c3 -3 4 -5 4 -9v-192c0 -4 -1 -7 -4 -10c-24 -26 -48 -51 -71 -77c-14 -16 -29 -31 -42 -47c-6 -8 -12 -8 -20 -8h-175c-7 0 -11 1 -16 7c-10 12 -22 23 -32 35 c-15 17 -31 33 -46 50c-12 14 -25 27 -37 41c-3 3 -4 6 -4 10v190c0 4 1 6 4 9c22 22 44 44 65 66c15 16 32 31 47 47c5 6 11 7 18 7h90z"/>
    <glyph glyph-name="i" unicode="i" d="M163 371h63h99c4 0 8 0 8 5c0 1 0 3 1 3c6 4 4 8 2 13c-4 12 -10 24 -11 37s5 24 14 28c11 5 27 3 36 -6c10 -9 13 -21 16 -34c5 -25 6 -50 4 -75c-6 -77 -30 -149 -63 -218c-8 -16 -18 -29 -30 -42c-7 -7 -11 -15 -17 -23c-3 -4 -6 -7 -9 -11c3 -1 5 -4 6 -7 c7 -18 20 -28 39 -31c6 -1 11 -4 14 -10c-57 -13 -114 -12 -171 0c5 5 8 9 15 10c19 3 32 15 39 33c0 1 1 1 1 1c6 5 0 8 -2 11c-19 26 -42 48 -56 77c-21 43 -38 89 -50 136c-11 45 -15 90 -10 136c2 14 6 29 14 41s19 16 33 14c16 -2 25 -17 21 -34c-3 -13 -7 -25 -12 -37 c-1 -3 -2 -5 1 -7c4 -3 4 -6 5 -10c-4 -6 -11 -6 -15 0c-3 5 -3 10 -1 15c4 11 8 21 10 32c3 16 1 36 -17 32c-32 -7 -31 -65 -28 -101c4 -44 13 -87 25 -129c5 -17 10 -34 19 -50c0 5 -2 8 -3 12c-11 38 -17 77 -15 116c0 2 -2 4 1 5c5 2 10 7 14 10c10 7 19 15 26 25 c5 9 -1 26 -11 28c-4 0 -5 2 -5 5zM347 187c3 2 3 5 4 7c11 30 18 62 24 94c6 31 10 61 9 93c-1 26 -5 63 -29 69c-16 4 -20 -12 -18 -28c2 -12 7 -24 11 -36c4 -10 -3 -24 -12 -20c-10 4 -17 -8 -19 -13s-2 -12 3 -17c11 -12 23 -24 38 -32c2 -1 3 -2 3 -5 c1 -40 -5 -79 -14 -112z"/>
    <glyph glyph-name="j" unicode="j" d="M287 403c0 -5 -2 -8 4 -8h39h67c3 0 5 0 5 -4c-1 -61 -9 -121 -29 -178c-19 -53 -47 -98 -87 -137c-5 -5 -6 -7 0 -11c14 -10 22 -25 33 -37c2 -3 2 -6 1 -9c-5 -19 -33 -25 -53 -27c-29 -3 -69 1 -81 23c-3 5 -3 10 1 15c3 4 6 8 10 12c7 8 12 19 22 25c3 2 3 4 0 7 c-65 62 -99 141 -112 229c-4 30 -6 59 -8 89c0 5 2 5 6 5h106c6 0 8 1 7 7h30c-7 4 -15 7 -22 10s-2 -8 -8 -8c-5 13 -8 25 -13 38c-2 6 -13 2 -11 10c2 9 17 5 14 -3c-1 -3 0 -3 2 -4c6 -2 11 -3 17 -5c1 0 4 -1 5 0l15 12c2 1 1 2 0 3c-7 6 3 14 9 9c3 -2 4 -5 1 -8 s2 -6 4 -7c15 -11 15 -11 32 -5c2 1 3 2 2 5c-3 8 10 11 13 3c1 -4 -1 -6 -5 -7c-3 -1 -3 -3 -4 -5c-4 -11 -8 -21 -12 -32h-2c0 2 1 3 0 5c0 1 0 2 -1 2c-7 -3 -12 -6 -19 -9c-1 -1 -4 -1 -3 -3c0 -2 2 -1 3 -1h18c1 0 3 -1 4 -1zM145 326v1h-22c-5 0 -5 -2 -5 -6 c2 -19 7 -38 11 -56c14 -61 39 -115 82 -161c6 -7 13 -14 20 -21c1 -1 2 -2 4 -1c2 2 0 2 -1 3c-3 4 -5 7 -8 11c-18 29 -29 61 -37 94c-9 37 -15 75 -15 114c0 4 0 9 3 12c5 6 -3 11 -8 11c-8 0 -16 -1 -24 -1zM267 83c4 -1 4 -1 6 1c22 22 41 45 57 71 c31 51 45 108 53 166c0 3 -1 4 -4 4h-44c-5 0 -14 -2 -10 -7c3 -4 4 -9 4 -14c0 -18 -2 -35 -4 -53c-8 -60 -25 -126 -58 -168zM179 359c5 -1 9 -2 14 -2c1 0 3 0 3 -1c1 -4 8 -5 8 -11c0 -3 2 -1 3 -1c16 5 25 19 24 36c0 3 -1 3 -4 3c-13 -1 -25 2 -38 2 c-6 0 -10 -2 -12 -8c2 0 10 -6 7 -8c-4 -3 -1 -7 -5 -10zM323 358c-3 2 -2 6 -3 7c-6 5 -1 6 1 9c1 1 5 1 3 4c-1 2 -2 5 -6 5h-42c-2 0 -4 -1 -4 -3c-2 -16 7 -30 22 -35c2 -1 4 0 5 2c3 4 6 9 13 8c3 0 7 2 11 3zM122 339c-5 6 -4 8 2 11c5 3 7 11 4 16c-5 8 3 12 11 11 c4 -1 13 -4 14 1s-11 5 -15 4c-5 -2 -8 -1 -13 2c-6 4 -11 0 -11 -7c1 -11 1 -23 2 -34c0 -3 1 -5 6 -4zM380 337c4 -1 5 1 5 4c1 12 1 23 2 35c0 9 -6 9 -12 5c-3 -2 -5 -3 -8 -1c-4 2 -18 3 -18 -3c1 -5 13 -2 17 -1c7 1 13 -5 8 -11c-3 -4 0 -13 4 -16c7 -4 7 -5 2 -12z M155 385c4 -7 2 -11 -5 -13c-6 -1 -10 2 -15 2c-2 0 -5 0 -5 -3c-1 -6 19 -4 23 -4c2 0 12 11 12 13c-1 2 0 5 -4 5h-6zM346 383h-3c-3 0 -5 0 -6 -3c-2 -3 0 -4 2 -6s3 -4 4 -6c1 -1 1 -3 3 -3c4 0 26 -2 25 4c-1 5 -14 1 -19 2c-7 1 -10 5 -6 12zM188 338c-1 3 -4 5 -3 8 c3 11 -16 2 -14 -3c2 -6 9 -5 17 -5zM314 337c8 0 14 -2 16 5c2 5 -16 13 -14 2c1 -3 -1 -4 -2 -7zM157 338c2 1 4 -1 5 1c3 6 -11 9 -15 9c-2 0 -5 -5 -3 -5c5 -1 8 -7 13 -5zM345 337c4 -2 7 2 10 3c1 0 4 0 3 3c-1 2 -1 4 -4 3c-5 -1 -15 -2 -14 -8c0 -3 3 0 5 -1z M137 339c0 2 -2 4 -2 7c1 6 -8 -1 -7 -2c3 -2 3 -8 9 -5zM374 342c-6 6 -6 6 -8 -1c0 -1 -1 -3 -2 -4c6 -3 6 4 10 5zM256 404c2 0 3 -1 4 1c-2 1 -3 0 -4 -1z"/>
    <glyph glyph-name="k" unicode="k" d="M242 436c-4 -3 -6 -9 -9 -7c-4 2 2 5 3 7c2 5 -1 12 5 15c1 0 -8 7 0 8c2 0 3 -1 3 -3c0 -4 3 -4 6 -5c7 -2 8 -8 11 -14c1 -3 -3 -3 -4 -1s-3 10 -6 9c-1 0 -1 -2 -1 -3c1 -8 5 -15 11 -20c1 -1 3 -2 3 -3c-2 -8 5 -9 8 -13c1 -1 1 -3 1 -4c-3 -12 8 -6 14 -11 c3 -3 4 -5 -1 -6c-3 -1 -3 -2 -2 -5s1 -6 5 -5c2 0 6 1 4 -4c-1 -2 11 -4 13 -4c3 0 8 0 6 -6c-1 -4 5 -1 6 1c3 6 8 10 12 15c2 2 4 2 6 2h21c4 0 5 5 9 2c3 -2 3 -5 1 -7c-3 -3 -1 -5 1 -8c10 -15 6 -30 -2 -45c-6 -12 -15 -22 -28 -29c-8 -4 -14 -12 -21 -18 c-1 -1 -2 -3 -4 -3c-14 -3 -2 -18 -14 -23c-3 -1 -9 -3 -9 -9c0 -4 -14 -4 -17 -4c-1 0 -1 -1 -2 -2c-6 -6 -5 -12 2 -17c2 -1 4 -2 3 -5s-2 -3 -4 -4c-5 -1 -8 -5 -8 -10c0 -2 -1 -2 -2 -2c4 0 4 0 4 -4s3 -5 6 -7c9 -5 18 -13 26 -19c4 -3 4 -8 4 -13c0 -6 2 -10 7 -13 c22 -14 45 -28 67 -42c19 -12 32 -30 40 -50c5 -12 4 -33 -9 -38c-4 -1 -8 -2 -11 -4c-23 -12 -48 -14 -74 -14c-56 0 -112 -1 -168 -2c-5 0 -9 1 -14 3c-15 7 -31 13 -42 26c-1 1 -3 3 -3 5c-1 21 5 50 22 61c29 18 58 36 88 54c7 4 10 10 10 17c0 4 1 7 5 9 c13 8 22 20 31 31c2 3 -2 11 -7 13c-2 1 -6 0 -6 3c-1 3 3 5 5 6c5 2 4 6 4 10s-4 4 -7 5c-6 2 -14 1 -19 8c-2 2 -3 4 -4 7c-1 2 -1 6 -6 5c-2 0 -2 4 -3 6c-2 5 -3 9 -8 13c-23 19 -61 38 -58 77c0 6 1 11 4 16c2 3 5 6 0 10c-4 3 3 11 7 6c2 -2 4 -2 6 -1c7 2 14 -2 21 1 c2 1 3 -1 4 -3c3 -4 6 -9 9 -13c1 -2 2 -5 3 0c0 1 1 1 2 1c6 -1 13 0 16 5s7 5 12 6c2 0 2 3 2 5c1 4 -6 1 -6 6c0 2 2 4 4 4c9 0 12 3 10 12c0 2 2 6 6 8c2 1 5 3 4 5c-5 6 -4 13 -4 20zM201 353c-2 -6 -9 -4 -13 -7c-1 -1 -2 -4 -4 -2c-1 1 0 4 0 6c2 8 -1 12 -9 14 c-2 0 -4 1 -4 3c-1 6 -7 3 -7 2c-2 -4 -7 -4 -9 -8c-7 -11 -7 -21 -3 -32s10 -22 19 -30c5 -5 11 -9 17 -11c16 -5 22 -1 22 16c0 6 -2 13 -1 18c3 12 0 22 -8 31zM304 316v-1c0 -5 1 -11 1 -16c0 -8 3 -10 11 -9c12 1 21 6 29 15c12 13 23 27 18 47c-3 13 -13 18 -26 13 c-6 -2 -9 -13 -7 -19c1 -4 -2 -6 -5 -3c-4 4 -9 7 -15 8c-5 1 -6 -2 -6 -5c1 -10 -2 -20 0 -30zM248 429c-4 -6 1 -11 0 -17c0 -1 7 -1 7 2c0 6 -1 11 -7 15z"/>
    <glyph glyph-name="l" unicode="l" d="M250 -2c-25 0 -48 0 -72 3c-13 1 -26 6 -39 9c-9 2 -22 12 -15 26c6 12 18 18 29 23c3 1 3 3 3 6v36c0 7 3 12 9 14c37 14 59 58 62 103c1 13 2 29 -4 38c-5 6 -9 12 -17 16c-15 7 -30 14 -45 23c-30 18 -52 53 -58 91c-2 13 -2 26 -1 40c0 3 2 7 -2 10c-2 1 5 7 8 6 c4 -1 7 -3 11 -3c8 -1 16 1 23 4c3 1 4 1 5 -2s3 -4 6 -4c5 1 9 1 12 -4c1 -1 2 -3 3 -2c3 2 5 1 7 1c9 2 16 -4 25 -1c4 2 13 -6 16 -3c1 1 2 1 3 1c5 0 10 0 14 2c5 2 9 -1 14 -2c8 -1 16 5 23 0c1 -1 2 0 3 0c4 -1 8 1 12 -2c1 -1 2 1 3 1c5 2 9 4 15 2c3 -1 7 -2 10 2h2 c5 -3 12 2 17 -1c1 -1 1 1 2 2c3 5 7 5 12 4c3 0 5 1 6 4s2 3 5 2c8 -3 16 -5 25 -4c3 0 6 2 9 3s8 -1 9 -4c0 -1 -1 -2 -1 -2c-3 -2 -2 -5 -2 -8c2 -22 1 -44 -6 -65c-9 -26 -24 -48 -47 -64c-9 -7 -20 -12 -30 -17c-7 -3 -14 -8 -21 -11c-9 -4 -15 -11 -19 -19 c-3 -5 -2 -11 -2 -17c1 -17 1 -35 6 -52c9 -29 26 -55 55 -67c7 -3 11 -8 11 -16c0 -12 -1 -23 -1 -35c0 -3 1 -5 4 -6c9 -4 17 -9 23 -16c5 -6 13 -19 4 -26c-4 -3 -9 -6 -15 -8c-35 -11 -69 -9 -109 -11zM143 437c-9 -4 -19 -4 -28 -6c-2 -1 -3 -2 -3 -4 c-1 -22 -2 -43 6 -65c11 -30 27 -55 59 -67c5 -2 28 -10 29 -1c0 3 0 5 -3 6c-27 13 -48 38 -59 65c-5 13 -8 26 -11 39s-1 24 10 33zM356 437c6 -4 8 -10 12 -15v-3c0 -20 -5 -39 -13 -57c-12 -27 -32 -49 -59 -62c-3 -1 -2 -3 -2 -6c0 -5 8 -4 12 -3c13 2 25 8 36 15 c27 18 38 46 45 76c3 15 1 30 1 45c0 2 -2 4 -4 5c-9 2 -19 1 -28 5zM198 284c10 -5 18 -10 26 -17c3 -2 5 0 7 1s0 3 0 4c-2 5 -6 10 -5 16c0 1 -1 1 -2 2c-5 3 -7 3 -11 -1c-3 -2 -5 -4 -9 -4c-1 0 -3 1 -6 -1zM301 285c-7 0 -13 1 -17 7c-1 2 -10 -2 -10 -4 c0 -6 -3 -11 -5 -16c0 -1 -3 -3 0 -4c2 -1 3 -4 6 -2c8 7 16 14 26 19z"/>
    <glyph glyph-name="m" unicode="m" d="M165 30c-1 4 1 7 3 10c5 8 7 16 10 25c1 3 1 5 0 8c-7 25 -8 26 15 39c9 6 23 9 18 24c7 13 2 26 3 39c1 9 -9 18 5 20c4 0 2 4 2 6c-2 24 -5 48 -7 72l-1 1c1 18 -7 30 -18 43c-28 34 -55 69 -83 103c-5 6 -3 11 5 13c41 8 83 13 125 14c49 1 97 -4 144 -14 c7 -1 10 -7 5 -13c-33 -40 -65 -81 -98 -121c-1 -2 -2 -2 -2 -4c-3 -30 -7 -61 -10 -91c-1 -6 0 -10 7 -11c4 0 4 -4 3 -7c-5 -13 -3 -27 -3 -41c0 -7 4 -13 3 -21c0 -3 2 -3 4 -4c9 -6 18 -12 28 -17c5 -3 7 -5 6 -10c0 -3 -1 -7 -2 -10c-7 -14 -2 -27 5 -39s4 -23 1 -34 c-1 -2 -2 -3 -4 -4c-13 -5 -27 -12 -41 -15c-13 -3 -26 -3 -39 -3c-26 -1 -50 6 -73 17c-5 2 -8 4 -9 10c0 3 -1 7 -2 10v5z"/>
    <glyph glyph-name="n" unicode="n" d="M260 457c30 -2 61 -2 91 -12c22 -8 -1 -25 5 -41c3 -7 7 -11 14 -6c18 13 33 8 48 -7c6 -7 15 -12 23 -17c7 -5 7 -8 1 -14c-21 -22 -39 -45 -60 -67c-14 -14 -24 -31 -32 -48l-60 -126c-8 -16 -9 -30 2 -45c12 -16 22 -35 33 -52c9 -13 -8 -24 -18 -26 c-33 -8 -64 -8 -97 0c-5 1 -10 4 -14 7c-7 6 -9 11 -3 20c12 18 22 37 34 54c9 12 9 23 3 35c-25 53 -49 106 -76 158c-11 20 -30 35 -45 53c-11 13 -23 25 -35 38c-4 5 -5 8 1 12c14 9 26 20 39 30c6 5 11 5 17 1c4 -2 9 -3 13 -5c14 -6 21 3 17 17c-7 25 -6 25 18 32 c26 8 53 8 81 9zM324 254c5 1 7 4 9 7c25 30 51 59 76 89c12 14 12 11 -3 23c-6 5 -11 12 -21 9c-16 -5 -29 -10 -31 -29c0 -5 -3 -10 -4 -14c-8 -28 -17 -56 -26 -85zM191 252v7l-33 108c-1 2 -1 4 -2 5c-13 13 -45 9 -55 -8c-2 -3 -1 -5 1 -7c29 -34 58 -68 89 -105z"/>
    <glyph glyph-name="o" unicode="o" d="M261 454h79c5 0 7 -2 7 -7c-1 -12 4 -22 10 -33c9 -16 12 -35 15 -53c11 -78 -15 -151 -55 -190c-19 -19 -25 -41 -19 -68c1 -6 3 -12 7 -17c1 -1 2 -3 3 -3c6 -1 7 -5 8 -10c5 -20 8 -40 8 -61c0 -3 -1 -6 -4 -7c-14 -6 -27 -11 -42 -14c-16 -3 -33 -2 -49 3 c-9 3 -18 7 -27 10c-4 1 -5 4 -5 8c0 22 3 44 9 66c1 2 2 3 4 4c8 2 10 9 12 15c8 24 1 49 -9 65c-2 3 -5 5 -8 8c-33 30 -54 83 -58 139c-2 24 0 47 5 70c3 12 7 23 12 34c2 5 5 9 8 14c2 3 2 7 2 11c1 16 1 16 16 16h71v0zM175 334c-27 -55 2 -145 62 -166 c-3 5 -6 8 -9 12c-30 40 -44 94 -53 154zM285 168c4 2 9 3 13 6c17 12 31 25 41 44c14 27 22 65 13 104c-1 4 -3 7 -6 11c-9 -60 -22 -117 -61 -165z"/>
    <glyph glyph-name="p" unicode="p" d="M198 385c0 0 0 12 -1 15c-1 2 1 4 1 6c6 26 26 46 52 49c20 2 38 -3 52 -18c8 -8 12 -19 14 -30c0 -1 1 -2 1 -2l8 8s6 0 8 -2c6 -6 6 -6 2 -13c-23 -38 -39 -79 -47 -123c-6 -33 -7 -66 -2 -99s14 -66 30 -95c13 -23 19 -47 30 -71c4 -8 -21 -12 -26 -13 c-29 -6 -59 -7 -88 -5c-19 1 -38 3 -56 10c-6 2 -8 4 -6 10l24 60c1 2 3 5 5 5c3 0 4 3 5 5c18 44 28 91 26 149c-2 61 -19 117 -51 168c-3 4 -1 7 3 10c2 1 2 0 2 -1l12 -18c1 -1 2 -4 2 -5zM212 355c36 -91 33 -183 1 -275c10 1 19 2 28 2c2 0 3 1 3 3 c11 76 12 160 11 246c0 3 -1 5 -4 5c-14 2 -26 7 -36 17c-1 1 -2 2 -3 2zM277 338c-4 0 -6 -2 -6 -6c-2 -31 -5 -64 -6 -97c-1 -50 -1 -99 2 -149v-2s1 -2 2 -2c2 0 1 5 1 7c-7 84 -1 170 7 249z"/>
    <glyph glyph-name="q" unicode="q" d="M269 -16h-28c-10 2 -19 1 -29 2c-32 2 -64 5 -95 13c-3 1 -5 2 -5 5v11c0 5 6 2 7 5s0 8 6 8c12 0 23 5 23 17c1 21 2 41 3 62c1 22 24 27 43 32c16 4 24 16 30 30c1 2 1 3 -2 3c-6 0 -6 4 -6 9c1 11 -1 18 -12 25c-24 16 -45 38 -64 60c-5 5 -9 11 -13 17 c-18 32 -29 66 -37 101c-4 19 -5 40 -14 58c-3 5 -1 6 4 6h71c4 0 5 0 5 4s2 6 6 6h187c3 0 6 -1 6 -5c0 -5 3 -5 7 -5h69c5 0 7 -1 4 -7c-4 -9 -6 -19 -8 -29c-4 -20 -8 -39 -14 -58c-11 -34 -22 -68 -47 -94c-18 -18 -34 -37 -55 -51c-12 -8 -18 -16 -15 -30v-2 c0 -3 -1 -4 -4 -4c-5 0 -4 -2 -3 -6c7 -18 20 -27 38 -30c8 -1 14 -5 21 -8c8 -4 13 -11 13 -21c0 -21 1 -40 2 -61c0 -14 9 -17 22 -19c4 0 8 0 7 -6c0 -2 2 -3 3 -3c9 -1 4 -8 5 -13s-3 -6 -7 -7c-32 -8 -64 -11 -96 -13c-9 -1 -19 1 -28 -2zM133 421c-5 0 -9 1 -14 1 c-6 1 -6 -2 -6 -8c1 -27 8 -53 16 -79c10 -35 28 -66 52 -93c3 -4 30 -35 34 -29c1 2 2 6 0 8s-3 4 -3 6c0 37 -14 68 -36 96c-11 14 -18 30 -20 47c-2 14 -3 28 -2 42c1 11 1 10 -9 10c-4 0 -8 -1 -12 -1zM379 421c-5 0 -10 1 -15 1s-7 -2 -6 -7c2 -18 -1 -36 -4 -54 c-4 -22 -20 -36 -30 -53c-15 -24 -25 -51 -25 -80c0 -3 0 -5 -2 -7s-2 -6 -1 -8c2 -2 9 3 11 5c16 15 31 32 44 50c19 27 29 58 38 89c6 19 8 39 10 59c0 4 0 6 -5 6c-5 -1 -10 -1 -15 -1z"/>
    <glyph glyph-name="r" unicode="r" d="M159 36c0 24 1 49 1 73c0 6 12 7 18 8c1 0 1 0 1 1c2 7 8 9 14 12c9 5 -1 20 6 28c2 2 4 4 3 7c-1 2 7 5 9 6c5 2 4 6 6 10c1 1 -8 4 -10 4c-4 1 -8 3 -11 5c-8 4 -13 11 -19 18c-7 8 -11 17 -15 27s-3 20 -4 30c0 3 0 3 -3 3c-4 0 -7 -1 -8 -5c-1 -3 -6 -1 -5 2 c1 4 2 7 0 11c-1 4 2 10 6 11c2 0 4 -1 5 -3c1 -1 2 -1 4 -2c0 6 2 21 -6 17c-2 -1 -4 -2 -6 1c-1 1 -2 1 -3 0c-4 -4 -7 -3 -9 2c-1 4 -4 8 -7 11c-2 3 -5 5 -3 9s3 7 3 11c0 3 -2 6 -4 8c-18 22 -40 46 -30 85c0 2 0 3 -1 4c-2 2 -4 5 -4 8s2 4 4 2c6 -5 11 5 14 8 c4 4 8 6 13 9c8 4 16 1 23 -1c4 -1 1 5 4 6c2 0 4 -1 5 -2c5 -6 10 -11 10 -19v-5c3 1 6 2 9 2c27 0 53 1 79 1c4 0 8 1 12 1c30 -2 59 -1 89 -2c3 0 5 -1 7 -2c0 9 2 14 6 19c2 3 4 6 8 7c2 0 3 0 3 -2c1 -5 0 -4 5 -3c4 1 8 2 12 2c5 0 9 -3 13 -5c6 -3 10 -9 15 -14 c4 -3 12 5 11 -4c0 -3 -2 -5 -4 -7c-1 -1 -1 -2 -1 -3c4 -16 3 -31 -3 -46c-7 -16 -19 -29 -29 -42c-3 -4 -1 -12 1 -16s0 -7 -2 -9c-4 -4 -6 -8 -8 -13c-1 -3 -5 -5 -8 -2c-2 1 -2 2 -4 0c-3 -4 -7 4 -9 2c-1 -1 -2 -2 -2 -4v-15c2 1 2 2 3 3c1 2 5 3 7 2c5 -3 6 -6 4 -11 c-1 -4 0 -7 0 -10s-2 -2 -3 -3c-2 -1 -2 0 -3 1c-2 4 -5 6 -9 5c-1 0 -1 -1 -1 -2c0 -5 -1 -10 -1 -15c-1 -12 -6 -22 -11 -32c-4 -8 -11 -14 -17 -21c-7 -7 -16 -14 -28 -15c-4 -1 -1 -6 0 -8c2 -6 14 -4 12 -12c0 -1 0 -2 1 -2c6 -6 6 -14 5 -24c-1 -6 10 -9 13 -12 c2 -2 3 -3 4 -6c2 -7 20 0 20 -10c0 -24 1 -49 1 -73c0 -2 1 -2 3 -3c5 -2 10 -3 14 -7c3 -3 2 -8 5 -11s2 -7 1 -10s-3 -3 -6 -4c-10 -2 -19 -3 -30 -4c-16 -1 -31 -3 -46 -4c-16 -1 -32 -1 -48 -1c-18 0 -36 -1 -53 2c-12 2 -23 2 -35 3c-6 1 -13 5 -19 5c-3 0 -5 1 -6 4 s-2 6 1 9c2 1 2 3 2 5c1 8 10 11 17 13c1 1 2 2 2 3zM365 398c-2 0 -2 3 -5 3c-2 0 -5 -4 -5 -6c-1 -11 -1 -23 -1 -34c0 -2 0 -4 3 -4c4 0 4 -29 3 -34c-1 -7 8 -10 10 -3c3 11 5 20 11 29c5 8 11 15 16 23c8 12 14 25 9 41c-1 4 -3 8 -7 10c-5 3 -13 6 -16 -1 c-1 -3 -1 -7 -5 -4c-1 1 -6 6 -6 1s1 -8 -4 -10c-4 -2 -1 -5 -2 -9c0 -1 0 -2 -1 -2zM162 378v0v17c0 3 -6 10 -8 5c-1 -1 -2 -2 -3 -2c-2 0 -2 3 -1 5s0 4 -2 5c-4 2 -4 5 -3 9s-2 5 -4 2c-7 -8 -6 10 -14 7c-4 -1 -10 -3 -13 -6c-4 -5 -5 -11 -5 -17c0 -29 23 -43 32 -64 c3 -6 3 -13 5 -19c1 -3 3 -5 6 -4s6 4 5 6c-1 4 -1 8 -1 12s0 23 4 23c2 0 2 2 2 3v18z"/>
    <glyph glyph-name="s" unicode="s" d="M330 360c-48 -1 -96 -1 -145 -1c-3 0 -5 -1 -7 -4c-23 -44 -49 -87 -73 -130c-1 -2 -1 -3 0 -5c25 -43 50 -86 75 -130c2 -3 4 -6 8 -5c2 0 4 0 4 -3c0 -22 -1 -45 -1 -68c-33 11 -62 28 -87 52c-35 34 -58 75 -66 123c-8 49 -1 95 22 140c8 15 16 30 27 43 c2 2 29 28 31 29c26 21 62 39 99 45c55 9 106 1 154 -27c59 -35 94 -87 105 -154c13 -75 -8 -140 -61 -195c-27 -28 -59 -47 -96 -57c0 20 -1 40 -1 60c0 5 -2 10 1 13s9 1 14 1c3 0 5 1 7 4l72 129c1 3 2 4 0 7c-25 43 -49 86 -74 129c-2 3 -4 4 -8 4zM184 360 c49 0 98 0 146 1c4 0 6 -2 8 -5c25 -43 49 -86 74 -129c2 -3 1 -4 0 -7l-72 -129c-2 -3 -4 -4 -7 -4c-5 0 -11 2 -14 -1s-1 -8 -1 -13c0 -20 1 -39 1 -59c0 -4 -1 -9 -1 -13c0 -2 0 -4 -3 -4c-40 0 -81 -1 -121 -1c-3 0 -3 1 -3 4v14c0 23 1 45 1 68c0 3 -2 3 -4 3 c-4 -1 -6 2 -8 5c-25 44 -50 86 -75 130c-1 2 -1 3 0 5c24 43 49 86 72 130c2 3 4 5 7 5zM209 172h69h34c7 0 6 1 6 -6v-56c0 -2 -1 -4 2 -5s5 1 6 3c1 3 3 6 5 9c17 33 34 68 52 101c3 6 3 10 0 15c-20 35 -40 71 -60 107c-2 3 -4 3 -7 3c-36 0 -73 0 -109 1 c-11 0 -19 -3 -22 -14v-2c-18 -34 -37 -68 -55 -102c-1 -3 -1 -5 0 -7c20 -36 40 -74 61 -109l1 1v3v54c0 4 0 4 4 4h13zM236 170v0h-25v0h25zM209 172h-13s-4 0 -4 -4v-54v-3l-1 -1c-21 35 -41 73 -61 109c-1 2 -1 4 0 7c18 34 37 68 55 102v2c3 11 11 14 22 14 c36 -1 73 -1 109 -1c3 0 5 0 7 -3c19 -36 40 -72 60 -107c3 -5 3 -9 0 -15c-18 -33 -34 -68 -52 -101c-2 -4 -6 -13 -11 -12c-3 1 -2 3 -2 5v56c0 6 1 6 -6 6h-5c1 1 2 3 3 4c8 14 17 29 26 43c2 3 2 6 0 9c-12 18 -23 36 -35 54c-3 5 -7 7 -13 7c-22 -1 -43 0 -65 0 c-2 0 -5 -1 -6 -3c-12 -20 -24 -41 -37 -61c-1 -2 -1 -4 0 -6c10 -16 19 -31 29 -47zM232 172c0 2 -2 3 -3 4c-23 15 -28 46 -10 67c7 8 18 15 29 15c9 0 19 0 28 -4c32 -15 33 -61 6 -78c-1 -1 -4 -1 -3 -4h-47z"/>
    <glyph glyph-name="t" unicode="t" d="M155 419c15 -3 29 -6 43 -9c2 0 4 -2 5 1c6 17 20 24 36 28c27 6 61 -4 68 -27c1 -3 3 -2 5 -2c14 3 26 6 40 9h3c-18 -61 -37 -122 -54 -184c-7 -24 -10 -48 -14 -73c0 -1 0 -3 1 -3c8 1 6 -5 6 -9s3 -11 -6 -10c-3 0 -1 -11 0 -14c0 -2 3 -1 4 -1c3 0 5 -3 5 -6 s-2 -5 -5 -5c-4 0 -5 -2 -5 -5c-1 -20 3 -40 15 -57c8 -11 9 -22 10 -34c0 -3 -1 -7 2 -10c2 -3 -1 -3 -3 -4c-34 -9 -74 -9 -110 0c-4 1 -7 0 -4 6c2 4 2 11 2 16c0 9 3 16 8 24c12 17 17 37 16 58c0 4 -1 8 -6 7c-3 0 -4 2 -4 5s1 5 4 5c7 0 5 8 6 13c0 1 1 3 -1 3 c-6 -1 -7 2 -6 7c1 4 -4 11 6 11c3 0 1 3 1 4c-3 20 -6 41 -11 61c-8 36 -21 72 -31 108c-8 29 -17 58 -26 87z"/>
    <glyph glyph-name="u" unicode="u" d="M183 211c-1 17 -14 26 -25 36c-7 7 -16 11 -24 17c-11 8 -14 22 -8 35c3 7 7 9 14 9c12 0 25 1 34 -9c3 -3 8 4 5 8c-3 3 -8 4 -7 9c1 4 4 8 7 11c1 0 1 1 1 2c-4 12 4 17 12 22c6 4 14 5 22 6c4 0 6 2 7 5c5 16 8 34 26 36c6 1 6 3 3 7c-4 6 -8 11 1 16c2 1 0 3 0 5 c2 10 5 20 4 31c4 -1 3 -4 3 -5c-1 -8 1 -16 3 -24c1 -3 0 -6 3 -9c3 -4 3 -8 -1 -12c-5 -5 -4 -8 2 -9c13 -3 18 -11 21 -23c2 -13 7 -20 21 -21c3 0 7 -2 10 -3c13 -4 15 -7 16 -20c0 -4 2 -8 4 -11c8 -10 -12 -13 -2 -21c1 -1 3 -1 4 0c10 10 24 10 40 9c1 0 2 0 3 -1 c10 -10 8 -33 -4 -42c-12 -8 -23 -17 -34 -26c-1 -1 -3 -1 -3 -2c-3 -9 -14 -14 -11 -27c-3 4 -3 10 -8 10s-2 -6 -3 -9c-2 -4 -3 -9 -4 -13c-3 -14 -13 -20 -26 -22c-5 -1 -10 -2 -12 -7c-2 -6 1 -9 5 -13c6 -7 14 -12 21 -18c5 -4 9 -8 13 -12c7 -6 0 -15 8 -20 s12 -12 11 -22c-1 -11 -1 -23 -1 -34c0 -3 0 -6 1 -9c9 -30 -29 -43 -52 -47c-27 -4 -54 -2 -80 8c-12 5 -34 19 -25 38c1 1 1 3 1 4c-1 15 1 29 -2 44c-1 7 5 14 11 18c3 2 5 4 5 8c1 10 8 17 15 23s15 10 21 17c3 4 7 7 5 13s-6 8 -12 9c-20 3 -23 21 -29 38 c-1 2 0 6 -3 6c-4 0 -4 -4 -5 -6c-1 -1 -1 -2 -2 -3zM381 284c0 14 -14 18 -25 17c-6 0 -9 -2 -9 -9c0 -6 -4 -7 -9 -4c-9 6 -10 -3 -11 -11l-6 -48c0 -4 1 -7 5 -5c3 1 6 5 8 9c4 12 14 21 26 26c11 5 21 13 21 25zM185 254v0c-1 7 -1 14 -2 21c-1 4 0 8 -2 12 c-2 3 -3 6 -7 2c-4 -5 -11 -2 -11 5c0 9 -14 9 -22 6c-9 -3 -14 -12 -11 -21c3 -10 11 -16 20 -20c12 -5 21 -14 26 -25c1 -3 7 -13 12 -10c2 1 0 3 0 5c-1 8 -2 17 -3 25z"/>
  </font>
</defs>
</svg>
